<svg xmlns="http://www.w3.org/2000/svg" xml:space="preserve" style="enable-background:new 0 0 864 864" viewBox="0 0 864 864"><path d="M381.66 382.59c20.65 120.61 45.04 252.8 67.74 364.62-102.04.26-204.08.31-306.13-.49-1.43-.01-2.7-.26-4.03-.43-11.91.33-22.95-6.11-25.15-21.78C98.28 612.02 74 501 54.82 389.1c41.38-1.19 175.64-4.82 326.84-6.51zm-5.89-34.66c-112.62 1.14-223.93 4.77-325.85 10.85-2.67-16.54-5.67-33.03-8-49.63-2.92-20.77 7.78-36.19 29.18-38.31 83.25-8.25 166.54-14.15 249.87-18.91-30.2-2.87-59.3-10.35-84.7-29.4-26.04-19.53-48.46-58.68-22.38-87.66 24.23-26.92 67.46-16.78 94.33-.15 26.87 16.63 47.15 41.39 58.99 70.07 12.35-29.92 33.87-55.64 62.41-72.07 26.5-15.26 67.62-23.66 90.85 2.16 27.21 30.24 1.92 71.07-25.67 90.16-14.42 9.98-29.8 16.45-45.76 20.74 102.33-3.66 204.77-5.11 307.4-3.53 17.55.27 28.83 13.76 30.26 30.26 2.43 28.05 4.64 56.12 6.98 84.17-120.77-6.99-254.33-9.83-387.42-9.05-4.53-26.82-8.93-53.16-12.96-78.12-3.1-19.17-32.26-11.04-29.18 8.04 3.66 22.57 7.6 46.25 11.65 70.38zm16.82-124.69c19.55-.42 39.19-2.12 57.59-8.86 10.23-3.75 20.55-9.01 29.35-15.48 13.54-9.96 34.67-36.53 10.67-48.65-21.68-10.95-53.42 11.73-67.82 25.57-14.02 13.48-23.67 29.61-29.79 47.42zm-50.8-.03c-6.57-19.07-17.22-36.13-32.69-50.18-14.45-13.13-44.17-32.66-64.93-22.77-40.55 19.31 25.49 59.33 43.42 65.23 17.51 5.76 35.85 7.3 54.2 7.72zm454.42 163.92c-100.68-5.52-246.75-6.11-384.06-4.84C433 503.66 457.53 636.1 480.19 747.16c104.34-.31 208.69-.81 313.04-.88 15.31-.01 31.68-13.89 30.26-30.26-9.49-109.61-18.24-219.26-27.28-328.89z" style="fill:#0F8FC6"/></svg>